<svg width="15" height="14" viewBox="0 0 15 14" fill="none" xmlns="http://www.w3.org/2000/svg">
<path d="M13.3929 0H1.60714C0.719531 0 0 0.671562 0 1.5V12.5C0 13.3284 0.719531 14 1.60714 14H13.3929C14.2805 14 15 13.3284 15 12.5V1.5C15 0.671562 14.2805 0 13.3929 0ZM13.3929 12.5H1.60714V1.5H13.3929V12.5ZM12.1921 4.94613L6.4134 10.2963C6.25587 10.4421 6.00147 10.4412 5.84521 10.2941L2.80567 7.43425C2.64941 7.28722 2.65041 7.04978 2.80798 6.90391L3.56866 6.19966C3.72619 6.05381 3.98059 6.05475 4.13685 6.20181L6.13882 8.08547L10.8716 3.70372C11.0291 3.55787 11.2835 3.55881 11.4398 3.70584L12.1943 4.41578C12.3506 4.56284 12.3496 4.80028 12.1921 4.94613Z" fill="#FF791C"/>
</svg>
