<svg width="25" height="22" viewBox="0 0 25 22" fill="none" xmlns="http://www.w3.org/2000/svg">
<path d="M21.2556 3.19688C18.9174 1.13437 15.8036 0 12.4944 0C5.66406 0 0.106027 4.89107 0.106027 10.9018C0.106027 12.8219 0.675223 14.6978 1.75781 16.3527L0 22L6.56808 20.4826C8.37612 21.3518 10.4129 21.8085 12.4888 21.8085H12.4944C19.3192 21.8085 25 16.9174 25 10.9067C25 7.99464 23.5937 5.25938 21.2556 3.19688ZM12.4944 19.9719C10.6417 19.9719 8.82812 19.5348 7.24888 18.7098L6.875 18.5134L2.97991 19.4121L4.01786 16.0679L3.77232 15.7241C2.73996 14.2804 2.19866 12.6156 2.19866 10.9018C2.19866 5.90759 6.8192 1.84152 12.5 1.84152C15.2511 1.84152 17.8348 2.78437 19.7768 4.49821C21.7187 6.21205 22.9129 8.48572 22.9074 10.9067C22.9074 15.9058 18.1696 19.9719 12.4944 19.9719ZM18.1417 13.1853C17.8348 13.0478 16.3114 12.3897 16.0268 12.3013C15.7422 12.208 15.5357 12.1638 15.3292 12.4388C15.1228 12.7138 14.5313 13.3228 14.3471 13.5094C14.1685 13.6911 13.9844 13.7156 13.6775 13.5781C11.8583 12.7777 10.6641 12.1491 9.46429 10.3371C9.14621 9.8558 9.78237 9.89018 10.3739 8.84911C10.4743 8.66741 10.4241 8.51027 10.346 8.37277C10.2679 8.23527 9.64844 6.89464 9.39174 6.34955C9.14062 5.8192 8.88393 5.89286 8.6942 5.88304C8.51562 5.87321 8.30915 5.87321 8.10268 5.87321C7.89621 5.87321 7.56138 5.94196 7.27679 6.21205C6.99219 6.48705 6.1942 7.14509 6.1942 8.48571C6.1942 9.82634 7.30469 11.1228 7.45536 11.3045C7.61161 11.4862 9.63728 14.2362 12.7455 15.4196C14.7098 16.1661 15.4799 16.2299 16.4621 16.1022C17.0592 16.0237 18.2924 15.4442 18.5491 14.8058C18.8058 14.1674 18.8058 13.6223 18.7277 13.5094C18.6551 13.3866 18.4487 13.3179 18.1417 13.1853Z" fill="#FF791C"/>
</svg>
