<svg width="27" height="17" viewBox="0 0 27 17" fill="none" xmlns="http://www.w3.org/2000/svg">
<path d="M25.7651 3.08934C25.4707 2.11932 24.6032 1.35537 23.5018 1.09611C21.5054 0.625 13.5 0.625 13.5 0.625C13.5 0.625 5.49469 0.625 3.49823 1.09611C2.39681 1.35541 1.52934 2.11932 1.23492 3.08934C0.699982 4.84756 0.699982 8.51591 0.699982 8.51591C0.699982 8.51591 0.699982 12.1843 1.23492 13.9425C1.52934 14.9125 2.39681 15.6446 3.49823 15.9039C5.49469 16.375 13.5 16.375 13.5 16.375C13.5 16.375 21.5053 16.375 23.5018 15.9039C24.6032 15.6446 25.4707 14.9125 25.7651 13.9425C26.3 12.1843 26.3 8.51591 26.3 8.51591C26.3 8.51591 26.3 4.84756 25.7651 3.08934V3.08934ZM10.8818 11.8465V5.18532L17.5727 8.516L10.8818 11.8465V11.8465Z" fill="#FF791C"/>
</svg>
